<svg width="160" height="80" viewBox="0 0 160 80" fill="none" xmlns="http://www.w3.org/2000/svg">
<g clip-path="url(#clip0_1534_38261)">
<path d="M10.5939 35.3302H15.1668V39.0648L22.4073 39.2553V18.3342C22.4073 18.1056 22.2929 17.915 22.1024 17.915H15.4717C15.2811 17.915 15.1668 18.0675 15.1668 18.3342V28.2422H10.5939V18.3342C10.5939 18.1056 10.4796 17.915 10.2891 17.915H3.73455C3.54401 17.915 3.42969 18.0675 3.42969 18.3342V38.798L10.5939 38.9885V35.3302Z" fill="white"/>
<path d="M39.1759 18.258C39.0996 18.0293 38.9853 17.9531 38.8329 17.9531H31.7068C31.5543 17.9531 31.44 18.0293 31.3638 18.258L25.3047 39.3315L45.235 39.865L39.1759 18.258ZM33.3454 35.978L35.2127 24.0503L37.0418 35.978H33.3454Z" fill="white"/>
<path d="M73.243 39.5602L76.406 34.9492L78.8068 40.7034L86.2377 40.8939L80.7502 28.6614L87.8001 18.3724C87.9907 18.1056 87.8764 17.877 87.6096 17.877H80.1405C79.9881 17.877 79.8357 17.9913 79.7976 18.1056L73.2812 28.5852V18.2961C73.2812 18.0675 73.1668 17.877 72.9763 17.877H66.8791C66.6885 17.877 66.5742 18.0294 66.5742 18.2961V40.3604L73.2812 40.551L73.243 39.5602Z" fill="white"/>
<path d="M108.454 37.0065C108.454 26.0315 96.1075 29.9566 96.1075 25.6123C96.1075 24.3548 97.1746 23.8213 98.5845 23.8213C100.261 23.8213 101.938 24.5834 103.577 26.2983C103.653 26.4126 103.805 26.4507 103.92 26.3745C103.958 26.3364 103.996 26.2983 103.996 26.2601L107.349 21.611C107.464 21.4586 107.464 21.1918 107.311 21.0394C104.987 18.2576 102.205 17 98.8513 17C94.2784 17 89.3625 19.2483 89.3625 26.4507C89.3625 37.9592 101.862 33.3863 101.862 38.1116C101.862 39.5597 100.68 40.2837 99.0037 40.2837C96.9078 40.2837 94.8119 39.2167 92.716 36.3587C92.6016 36.2062 92.4111 36.1681 92.2968 36.3587L89.0195 41.0078L107.578 41.5032C108.188 40.0551 108.454 38.5308 108.454 37.0065Z" fill="white"/>
<path d="M123.66 18.258C123.583 18.0293 123.469 17.9531 123.317 17.9531H116.152C116 17.9531 115.886 18.0293 115.809 18.258L109.141 41.5036L130.328 42.0371L123.66 18.258ZM117.829 35.978L119.735 24.0503L121.564 35.978H117.829Z" fill="white"/>
<path d="M143.59 30.5287L145.457 42.4563L153.193 42.6469L159.976 18.3723C160.052 18.1056 159.938 17.915 159.747 17.915H153.383C153.193 17.915 153.079 18.0294 153.041 18.2961L149.649 32.3959L146.905 18.2961C146.867 18.1056 146.753 17.915 146.562 17.915H140.617C140.427 17.915 140.313 18.0675 140.274 18.2961L137.531 32.3959L134.139 18.2961C134.101 18.0675 133.987 17.915 133.796 17.915H127.432C127.242 17.915 127.127 18.0675 127.204 18.3723L133.834 42.1515L141.723 42.342L143.59 30.5287Z" fill="white"/>
<path d="M63.4493 38.0735C63.4493 38.0354 63.4112 37.9591 63.3731 37.9591C63.335 37.9591 63.2969 37.9591 63.2588 37.9972C62.3442 39.331 60.858 40.1313 59.2194 40.0932C55.7135 40.0932 54.0368 36.5873 54.0368 31.9381C54.0368 27.7082 55.4086 23.9736 59.2956 23.9736C60.8961 23.8974 62.3823 24.6977 63.2588 25.9934C63.2969 26.0315 63.3731 26.0696 63.4112 26.0315C63.4493 25.9934 63.4493 25.9933 63.4493 25.9552V18.1813C63.4493 17.9908 63.335 17.8383 63.1826 17.7621C61.8488 17.3048 60.4007 17.0762 58.9907 17.0762C51.2168 17.0762 46.2247 23.8974 46.2247 32.5097C46.1866 35.063 46.682 37.5781 47.6728 39.9026L63.4493 40.3218V38.0735Z" fill="white"/>
<path d="M11.7373 46.9912C11.7373 47.2198 11.8516 47.3722 12.0422 47.3722H18.6348C18.8253 47.3722 18.9397 47.2198 18.9397 46.9912V40.3985L11.6992 40.208L11.7373 46.9912Z" fill="white"/>
<path d="M0.304861 47.3724H6.85937C7.0499 47.3724 7.20233 47.22 7.20233 46.9913V40.0558L0 39.9033V46.9913C0 47.22 0.114323 47.3724 0.304861 47.3724Z" fill="white"/>
<path d="M20.273 47.3721H26.8656C27.0562 47.3721 27.1705 47.2197 27.2086 47.0673L28.047 43.4089H35.4398L36.2782 47.0673C36.3163 47.2578 36.4687 47.3721 36.6212 47.3721H43.2138C43.4424 47.3721 43.5187 47.1816 43.4424 46.8767L41.7657 40.9319L21.8354 40.3984L19.9682 46.8386C19.9301 47.1816 20.0444 47.3721 20.273 47.3721Z" fill="white"/>
<path d="M77.5471 47.1046C77.5852 47.257 77.7377 47.3713 77.8901 47.3713H84.7876C85.0162 47.3713 85.1305 47.1808 85.0162 46.8759L82.806 41.9982L75.375 41.8076L77.5471 47.1046Z" fill="white"/>
<path d="M63.4103 47.3725H69.5075C69.6981 47.3725 69.8124 47.22 69.8124 46.9914V41.6944L63.1055 41.5039V46.9533C63.1055 47.22 63.2198 47.3725 63.4103 47.3725Z" fill="white"/>
<path d="M85.0936 43.4089C87.4562 46.4957 91.1146 48.3248 95.0015 48.3248C98.9266 48.3248 102.585 46.4194 104.185 42.6087L85.6271 42.1133L85.0936 42.8754C84.9792 43.0279 84.9792 43.2565 85.0936 43.4089Z" fill="white"/>
<path d="M104.756 47.3718H111.348C111.539 47.3718 111.691 47.2194 111.729 47.067L112.568 43.4087H119.96L120.799 47.067C120.837 47.2575 120.989 47.3718 121.18 47.3718H127.734C127.963 47.3718 128.039 47.1813 127.963 46.8765L126.896 43.1419L105.708 42.6084L104.489 46.8765C104.413 47.1813 104.565 47.3718 104.756 47.3718Z" fill="white"/>
<path d="M142.6 47.0293C142.638 47.2199 142.752 47.3723 142.943 47.3723H148.545C148.735 47.3723 148.85 47.258 148.888 47.0293L149.802 43.7521L142.066 43.5615L142.6 47.0293Z" fill="white"/>
<path d="M131.813 47.3724H137.415C137.606 47.3724 137.72 47.22 137.758 47.0295L138.33 43.4855L130.441 43.2949L131.508 47.0676C131.508 47.2581 131.623 47.3724 131.813 47.3724Z" fill="white"/>
<path d="M55.6745 48.4769C57.0463 48.4769 58.4182 48.2864 59.7139 47.8672C59.9044 47.791 60.0187 47.6385 60.0187 47.448V41.427L44.2422 41.0078C46.2619 45.5807 50.2632 48.4769 55.6745 48.4769Z" fill="white"/>
<path d="M9.90685 56.5554H7.42986V55.4122C7.42986 55.2217 7.31553 55.1074 7.08689 55.1074H6.59149C6.36284 55.1074 6.24852 55.2217 6.24852 55.4122V60.4805C6.24852 60.6711 6.36284 60.7854 6.59149 60.7854H7.125C7.35364 60.7854 7.46796 60.6711 7.46796 60.4805V58.9943H6.74392V57.47H9.90685V60.6711C9.90685 61.8143 9.22091 62.3859 7.81093 62.3859H5.79123C4.38125 62.3859 3.69531 61.8143 3.69531 60.6711V55.2217C3.69531 54.0784 4.38125 53.5068 5.79123 53.5068H7.81093C9.22091 53.5068 9.90685 54.0784 9.90685 55.2217V56.5554Z" fill="white"/>
<path d="M36.5079 62.3478L36.203 61.014H33.9928L33.6879 62.3478H31.2109L33.5736 53.5068H36.6222L38.9849 62.3478H36.5079ZM34.412 59.2992H35.8601L35.1741 56.0982L34.412 59.2992Z" fill="white"/>
<path d="M62.764 62.3478H60.5156V53.5068H63.2213L64.7456 58.2322L66.2318 53.5068H68.9374V62.3478H66.7272V56.746L65.5839 60.4805H63.8691L62.7259 56.7841L62.764 62.3478Z" fill="white"/>
<path d="M91.0391 53.5068H93.5542V62.3478H91.0391V53.5068Z" fill="white"/>
<path d="M119.809 53.5068H122.095V62.3478H119.961L117.904 57.6987V62.3478H115.617V53.5068H117.751L119.809 58.2322V53.5068Z" fill="white"/>
<path d="M150.337 56.5554H147.86V55.4122C147.86 55.2217 147.745 55.1074 147.517 55.1074H146.983C146.754 55.1074 146.64 55.2217 146.64 55.4122V60.4805C146.64 60.6711 146.754 60.7854 146.983 60.7854H147.478C147.707 60.7854 147.821 60.6711 147.821 60.4805V58.9943H147.097V57.47H150.337V60.6711C150.337 61.8143 149.651 62.3859 148.241 62.3859H146.221C144.811 62.3859 144.125 61.8143 144.125 60.6711V55.2217C144.125 54.0784 144.811 53.5068 146.221 53.5068H148.241C149.651 53.5068 150.337 54.0784 150.337 55.2217V56.5554Z" fill="white"/>
</g>
<defs>
<clipPath id="clip0_1534_38261">
<rect width="160" height="80" fill="white"/>
</clipPath>
</defs>
</svg>
