<svg width="160" height="80" viewBox="0 0 160 80" fill="none" xmlns="http://www.w3.org/2000/svg">
<g clip-path="url(#clip0_1534_40631)">
<path d="M8.33205 45.2719C8.38999 46.0197 8.27934 46.771 8.00827 47.4704C7.7372 48.1698 7.31262 48.7994 6.76582 49.3128C5.94973 49.9405 4.93547 50.2545 3.90746 50.1977C3.2159 50.228 2.52811 50.0806 1.90978 49.7693C1.29146 49.4581 0.763258 48.9936 0.375632 48.42C-0.324133 47.422 -0.69881 46.2324 -0.697234 45.0135C-0.758062 43.6363 -0.346362 42.2796 0.469604 41.1684C0.860947 40.6675 1.36192 40.263 1.93402 39.9859C2.54582 39.6727 3.22035 39.5014 3.90746 39.4847C4.63003 39.4684 5.34942 39.5852 6.0297 39.8293C6.601 40.0149 7.1121 40.3502 7.50978 40.8004C7.6085 40.922 7.66119 41.0745 7.65857 41.2311C7.65857 41.3101 7.64017 41.388 7.60483 41.4587C7.56949 41.5294 7.51818 41.5909 7.45496 41.6383C7.3318 41.7415 7.17707 41.7995 7.01642 41.8027C6.83699 41.7903 6.66528 41.7249 6.52306 41.6148C6.16789 41.3196 5.77561 41.0721 5.35622 40.8787C4.92703 40.7008 4.46595 40.6129 4.00144 40.6202C3.48682 40.5969 2.97549 40.7135 2.52183 40.9576C2.06817 41.2016 1.68912 41.5641 1.425 42.0064C0.904586 42.8251 0.63258 43.7771 0.64189 44.7472C0.600058 45.3902 0.689577 46.0349 0.904993 46.6421C1.12041 47.2493 1.45721 47.8063 1.89487 48.2791C2.39383 48.7774 3.06918 49.0588 3.77434 49.0622C4.31716 49.0641 4.85311 48.9408 5.34056 48.702C5.89599 48.4416 6.35738 48.0159 6.66158 47.4832C6.96578 46.9505 7.09792 46.3368 7.03991 45.7261V45.2719H5.16044C4.80021 45.2719 4.60443 45.0762 4.56528 44.6924C4.52612 44.3087 4.77672 44.0581 5.10563 44.0581H7.45496C8.02663 44.0581 8.30855 44.387 8.30855 45.0292L8.33205 45.2719ZM159.856 45.2719C159.914 46.0197 159.804 46.771 159.533 47.4704C159.262 48.1698 158.837 48.7994 158.29 49.3128C157.464 49.9283 156.444 50.2282 155.416 50.1585C154.73 50.1842 154.048 50.0345 153.435 49.7234C152.823 49.4124 152.3 48.9503 151.916 48.3809C151.209 47.3862 150.834 46.1943 150.843 44.9744C150.774 43.5961 151.187 42.2369 152.01 41.1293C152.401 40.6284 152.902 40.2238 153.474 39.9468C154.099 39.6425 154.784 39.4845 155.479 39.4847C156.201 39.4691 156.921 39.5859 157.601 39.8293C158.152 40.0241 158.643 40.3587 159.026 40.8004C159.128 40.9202 159.181 41.0739 159.175 41.2311C159.167 41.3014 159.144 41.3692 159.107 41.4299C159.071 41.4907 159.022 41.543 158.964 41.5835C158.84 41.6856 158.686 41.7435 158.525 41.7479C158.344 41.7343 158.17 41.6691 158.024 41.56C157.671 41.2651 157.282 41.0176 156.865 40.8239C156.436 40.646 155.975 40.5581 155.51 40.5654C154.995 40.5432 154.483 40.6602 154.028 40.9041C153.573 41.148 153.192 41.5098 152.926 41.9515C152.413 42.7735 152.141 43.7234 152.143 44.6924C152.103 45.3352 152.193 45.9794 152.408 46.5863C152.624 47.1933 152.96 47.7504 153.396 48.2243C153.895 48.7226 154.57 49.0039 155.275 49.0074C155.818 49.009 156.354 48.8857 156.841 48.6471C157.385 48.3819 157.834 47.9571 158.129 47.4295C158.425 46.9019 158.552 46.2966 158.494 45.6948V45.2406H156.622C156.544 45.2461 156.465 45.2351 156.391 45.2082C156.316 45.1814 156.249 45.1393 156.192 45.0847C156.135 45.0301 156.09 44.9642 156.061 44.8912C156.031 44.8183 156.017 44.7399 156.019 44.6611C156.019 44.2382 156.238 44.0268 156.567 44.0268H158.917C159.488 44.0268 159.778 44.3557 159.778 44.9978L159.856 45.2719ZM72.5316 49.305C72.5316 49.8845 72.3201 50.1742 71.9051 50.1742C71.8227 50.1829 71.7395 50.1745 71.6605 50.1495C71.5816 50.1246 71.5086 50.0837 71.4462 50.0293C71.3837 49.9749 71.3331 49.9083 71.2975 49.8335C71.262 49.7588 71.2422 49.6775 71.2394 49.5947L70.0334 41.1136L67.4727 49.6574C67.4464 49.8052 67.368 49.9388 67.2515 50.0336C67.1351 50.1285 66.9885 50.1784 66.8383 50.1742C66.6841 50.1812 66.5324 50.133 66.4104 50.0383C66.2884 49.9436 66.2042 49.8085 66.1727 49.6574L63.6432 41.1136L62.4059 49.6574C62.4031 49.7473 62.3819 49.8357 62.3436 49.9171C62.3053 49.9985 62.2507 50.0712 62.1831 50.1306C62.1156 50.1901 62.0366 50.235 61.951 50.2627C61.8654 50.2904 61.775 50.3003 61.6855 50.2917C61.3174 50.2917 61.1138 50.0411 61.0825 49.5086C61.0962 49.4099 61.0962 49.3097 61.0825 49.211L62.6487 40.3383C62.6797 40.0755 62.8016 39.8317 62.9933 39.6492C63.1658 39.4951 63.3884 39.4088 63.6198 39.4064C63.8406 39.4024 64.0571 39.4682 64.2384 39.5944C64.4125 39.7257 64.5346 39.9143 64.583 40.1269L66.8148 47.8484L69.0546 40.1034C69.1096 39.9023 69.2346 39.7274 69.407 39.61C69.5762 39.4972 69.7752 39.4372 69.9786 39.4377C70.2253 39.4266 70.4668 39.5105 70.6533 39.6723C70.8399 39.834 70.9572 40.0613 70.981 40.307L72.5316 49.305ZM96.6592 49.4146C96.6592 49.8923 96.4478 50.1351 96.0406 50.1351C95.6334 50.1351 95.3749 49.9001 95.3749 49.4381V40.1582C95.3611 40.0666 95.3685 39.973 95.3967 39.8847C95.4249 39.7964 95.4731 39.7158 95.5375 39.6491C95.6018 39.5825 95.6807 39.5316 95.768 39.5003C95.8552 39.4691 95.9485 39.4584 96.0406 39.4691C96.4478 39.4691 96.6592 39.6962 96.6592 40.1582V49.4146ZM127.96 49.5086C127.96 49.9471 127.772 50.1742 127.389 50.1742C127.243 50.1722 127.1 50.133 126.974 50.0603C126.848 49.9877 126.743 49.884 126.668 49.7592L121.186 41.8262V49.5086C121.199 49.5961 121.19 49.6853 121.161 49.7689C121.133 49.8526 121.085 49.9283 121.022 49.9901C120.958 50.0518 120.882 50.0978 120.797 50.1243C120.713 50.1509 120.624 50.1572 120.536 50.1429C120.121 50.1429 119.91 49.9236 119.91 49.4772V40.1269C119.91 39.6727 120.09 39.4377 120.45 39.4377C120.601 39.4433 120.747 39.4873 120.876 39.5654C121.005 39.6435 121.112 39.7532 121.186 39.8841L126.668 47.7857V40.1582C126.663 39.9781 126.724 39.8023 126.84 39.6649C126.898 39.6001 126.97 39.549 127.049 39.5151C127.129 39.4813 127.216 39.4656 127.302 39.4691C127.741 39.4691 127.96 39.6962 127.96 40.1582V49.5086ZM39.03 49.6574C39.03 50.0019 38.8264 50.1742 38.427 50.1742C38.2823 50.1709 38.1414 50.1275 38.0198 50.0489C37.898 49.959 37.8075 49.8329 37.7614 49.6887L37.0723 47.7857H32.217L31.52 49.6887C31.4791 49.8284 31.3914 49.9497 31.2716 50.0324C31.1519 50.1151 31.0073 50.1541 30.8622 50.1429C30.7877 50.1541 30.7116 50.1492 30.6392 50.1284C30.5667 50.1076 30.4996 50.0715 30.4424 50.0225C30.3852 49.9734 30.3392 49.9126 30.3076 49.8442C30.276 49.7758 30.2595 49.7014 30.2592 49.626C30.2693 49.5621 30.285 49.4992 30.3062 49.4381L30.3453 49.2736L33.7284 40.2209C33.8005 39.998 33.9302 39.7981 34.1043 39.6414C34.2479 39.5108 34.4349 39.4383 34.6289 39.4377C34.8285 39.4393 35.0217 39.5083 35.1771 39.6335C35.3416 39.786 35.4654 39.9771 35.5374 40.1895L38.9752 49.2736C39.0093 49.3988 39.0277 49.5277 39.03 49.6574ZM36.6807 46.6659L34.6446 40.9726L32.632 46.6659H36.6807Z" fill="white"/>
<path d="M160 24.7386C160 25.5718 159.753 26.3864 159.29 27.0793C158.827 27.7721 158.169 28.3121 157.399 28.631C156.629 28.9499 155.782 29.0333 154.965 28.8708C154.148 28.7082 153.397 28.3069 152.808 27.7177C152.219 27.1285 151.817 26.3778 151.655 25.5605C151.492 24.7432 151.576 23.8961 151.894 23.1263C152.213 22.3564 152.753 21.6984 153.446 21.2355C154.139 20.7725 154.954 20.5254 155.787 20.5254C156.904 20.5254 157.976 20.9693 158.766 21.7594C159.556 22.5495 160 23.6212 160 24.7386ZM149.044 14.4876C149.041 15.3219 148.79 16.1364 148.324 16.8281C147.857 17.5197 147.196 18.0572 146.423 18.3725C145.651 18.6878 144.802 18.7666 143.985 18.5991C143.168 18.4316 142.419 18.0252 141.833 17.4314C141.247 16.8377 140.85 16.0833 140.693 15.2639C140.536 14.4445 140.626 13.597 140.952 12.8288C141.277 12.0605 141.823 11.4062 142.521 10.9487C143.218 10.4912 144.036 10.2511 144.87 10.2588C145.984 10.2692 147.048 10.7198 147.83 11.5121C148.612 12.3045 149.048 13.3743 149.044 14.4876ZM122.74 27.9885L110.993 0.509078C110.95 0.388037 110.872 0.282517 110.768 0.205854C110.665 0.129191 110.542 0.0848267 110.413 0.0783668H105.347C105.212 0.0823304 105.083 0.128282 104.976 0.209759C104.869 0.291235 104.791 0.404136 104.751 0.532573L93.0048 28.012C92.9702 28.0828 92.9514 28.1603 92.9499 28.2391C92.9499 28.3616 92.9986 28.4791 93.0853 28.5658C93.1719 28.6524 93.2894 28.7011 93.412 28.7011H98.6432C98.7755 28.6993 98.9043 28.6581 99.0131 28.5828C99.1219 28.5075 99.2057 28.4015 99.254 28.2782L101.666 21.8959H114.11L116.49 28.2704C116.538 28.3942 116.621 28.5009 116.73 28.5763C116.839 28.6518 116.969 28.6926 117.101 28.6933H122.332C122.454 28.6913 122.571 28.6419 122.657 28.5557C122.743 28.4695 122.792 28.3532 122.794 28.2312C122.799 28.1468 122.78 28.0626 122.74 27.9885ZM103.553 16.7743L107.853 5.69328L112.152 16.7743H103.553ZM39.9333 8.88838C40.0621 8.30783 40.3013 7.75748 40.6381 7.26733C41.1631 6.55655 41.8577 5.9885 42.6585 5.61497C43.5064 5.22438 44.4268 5.01628 45.3602 5.00414H55.7208C55.8662 5.00414 56.0056 4.94639 56.1084 4.84358C56.2112 4.74078 56.269 4.60135 56.269 4.45596V0.540403C56.269 0.46878 56.2548 0.397871 56.2271 0.331797C56.1995 0.265724 56.159 0.205803 56.108 0.155524C56.0569 0.105244 55.9965 0.0656059 55.93 0.038916C55.8635 0.0122261 55.7924 -0.000981253 55.7208 5.67647e-05H44.256C37.9363 5.67647e-05 32.8148 5.53666 32.8148 12.3732V16.2888C32.8148 23.1175 37.9363 28.6541 44.256 28.6541H55.6973C55.8427 28.6541 55.9821 28.5964 56.0849 28.4936C56.1877 28.3908 56.2455 28.2513 56.2455 28.1059V24.1904C56.2455 24.045 56.1877 23.9056 56.0849 23.8028C55.9821 23.7 55.8427 23.6422 55.6973 23.6422H45.3367C44.4041 23.6305 43.4841 23.4251 42.635 23.0392C41.8345 22.6615 41.1403 22.0911 40.6146 21.379C40.2788 20.8912 40.0395 20.3436 39.9098 19.7658C39.7348 18.9522 39.6118 18.1283 39.5417 17.299V16.6334H55.6973C55.8427 16.6334 55.9821 16.5756 56.0849 16.4728C56.1877 16.37 56.2455 16.2306 56.2455 16.0852V12.1696C56.2455 12.0242 56.1877 11.8848 56.0849 11.782C55.9821 11.6792 55.8427 11.6214 55.6973 11.6214H39.5417V11.3552C39.619 10.5253 39.7498 9.70136 39.9333 8.88838ZM75.557 28.6698H85.064C85.1964 28.6559 85.318 28.5908 85.4029 28.4883C85.4878 28.3858 85.5292 28.2542 85.5182 28.1216V24.206C85.5292 24.0734 85.4878 23.9418 85.4029 23.8393C85.318 23.7369 85.1964 23.6717 85.064 23.6579H76.4498C75.883 23.6865 75.3163 23.5998 74.784 23.4032C74.2516 23.2066 73.7647 22.904 73.3526 22.5139C72.9405 22.1237 72.6117 21.6541 72.3863 21.1333C72.1608 20.6125 72.0433 20.0514 72.0409 19.4839V0.509078C72.0221 0.378987 71.9572 0.259973 71.858 0.173725C71.7588 0.0874783 71.632 0.0397415 71.5005 0.0392118H66.5904C66.5184 0.0392118 66.4471 0.0533903 66.3806 0.0809389C66.3141 0.108487 66.2537 0.148866 66.2028 0.199769C66.1519 0.250672 66.1115 0.311103 66.0839 0.377611C66.0564 0.444119 66.0422 0.515403 66.0422 0.587391C66.0387 0.621232 66.0387 0.655352 66.0422 0.689193V19.3742C66.0895 21.8601 67.1118 24.2277 68.8888 25.9667C70.6658 27.7056 73.0551 28.6764 75.5414 28.6698M24.6313 27.965L18.0061 16.7352C21.4127 16.0147 23.7777 13.6497 23.7777 8.52031C23.7933 1.68375 19.2434 0.0783668 13.4954 0.0783668H-0.451821C-0.523809 0.0783668 -0.595093 0.0925453 -0.661601 0.120094C-0.728109 0.147642 -0.78854 0.188021 -0.839443 0.238924C-0.890346 0.289827 -0.930724 0.350258 -0.958273 0.416766C-0.985821 0.483274 -1 0.554558 -1 0.626546V28.1216C-1 28.1936 -0.985821 28.2649 -0.958273 28.3314C-0.930724 28.3979 -0.890346 28.4583 -0.839443 28.5092C-0.78854 28.5601 -0.728109 28.6005 -0.661601 28.6281C-0.595093 28.6556 -0.523809 28.6698 -0.451821 28.6698H4.46612C4.53811 28.6698 4.60939 28.6556 4.6759 28.6281C4.74241 28.6005 4.80284 28.5601 4.85374 28.5092C4.90465 28.4583 4.94502 28.3979 4.97257 28.3314C5.00012 28.2649 5.0143 28.1936 5.0143 28.1216V17.3616H11.9918L18.1314 28.2704C18.2073 28.4105 18.3209 28.5265 18.4593 28.6054C18.5977 28.6843 18.7554 28.7229 18.9145 28.7168H24.271C24.3929 28.7148 24.5093 28.6654 24.5955 28.5792C24.6817 28.493 24.731 28.3766 24.7331 28.2547C24.7293 28.1501 24.6938 28.049 24.6313 27.965ZM13.5346 12.3811H5.0143V5.18426H13.5346C16.7297 5.18426 17.7007 6.75048 17.7007 8.72392C17.7007 10.6974 16.7297 12.3811 13.5346 12.3811Z" fill="white"/>
<path d="M62.0322 70.3636V64.2553C61.9283 64.2553 61.8287 64.2141 61.7553 64.1406C61.6819 64.0672 61.6406 63.9676 61.6406 63.8638C61.6406 63.7599 61.6819 63.6603 61.7553 63.5869C61.8287 63.5135 61.9283 63.4722 62.0322 63.4722V62.8849H53.9035V63.4722C54.0073 63.4722 54.1069 63.5135 54.1803 63.5869C54.2538 63.6603 54.295 63.7599 54.295 63.8638C54.295 63.9676 54.2538 64.0672 54.1803 64.1406C54.1069 64.2141 54.0073 64.2553 53.9035 64.2553V70.3636C53.9129 72.4388 54.3445 74.4905 55.1721 76.3936C56.6835 79.4477 57.9678 79.9176 57.9678 79.9176C57.9678 79.9176 59.2521 79.4477 60.7635 76.3936C61.5911 74.4905 62.0228 72.4388 62.0322 70.3636ZM59.072 72.8147C58.5082 74.8352 57.9678 75.3364 57.9678 75.3364C57.9678 75.3364 57.4275 74.8352 56.8636 72.8147C56.6172 71.7152 56.5067 70.5895 56.5347 69.463V64.0517H59.4009V69.463C59.4233 70.5841 59.3129 71.7039 59.072 72.7991V72.8147ZM44.6001 62.8849H47.2157V79.6826H44.6001V62.8849ZM123.663 62.8849H116.78V65.3595H118.839V79.6826H121.596V65.3595H123.663V62.8849ZM113.209 77.208V71.969H115.683V69.4943H113.209V65.3595H115.949V62.8849H110.452V79.6826H115.949V77.208H113.209ZM99.692 77.208V62.8849H96.9433V79.6826H102.887V77.208H99.692ZM51.0608 77.208V62.8849H48.453V79.6826H54.3655V77.208H51.0608ZM106.466 77.208V62.8849H103.709V79.6826H109.661V77.208H106.466ZM95.6512 65.5005V62.8849H92.8554V76.4875C92.8659 76.5869 92.8554 76.6873 92.8245 76.7823C92.7937 76.8773 92.7432 76.9647 92.6764 77.0389C92.6095 77.1132 92.5279 77.1725 92.4366 77.2131C92.3454 77.2538 92.2466 77.2748 92.1467 77.2748C92.0469 77.2748 91.9481 77.2538 91.8569 77.2131C91.7656 77.1725 91.6839 77.1132 91.6171 77.0389C91.5503 76.9647 91.4998 76.8773 91.469 76.7823C91.4381 76.6873 91.4276 76.5869 91.438 76.4875V62.8849H88.6501V76.7616C88.6774 77.1192 88.7675 77.4691 88.9164 77.7953C89.1081 78.1919 89.3739 78.548 89.6995 78.8447C90.0277 79.1487 90.4067 79.3925 90.8194 79.5652C91.2469 79.7393 91.7047 79.8271 92.1663 79.8236C92.6355 79.8263 93.1008 79.7386 93.5368 79.5652C93.9518 79.3926 94.3334 79.1488 94.6644 78.8447C94.9933 78.5511 95.2597 78.1942 95.4475 77.7953C95.6287 77.3917 95.7196 76.9534 95.7138 76.511V65.5005H95.6512ZM65.7833 77.1219V71.8907H68.2579V69.4082H65.7833V65.2812H68.5242V62.7987H63.0267V79.5965H68.5242V77.1219H65.7833ZM87.82 73.0418C87.8333 72.6738 87.7748 72.3068 87.6477 71.9611C87.4497 71.4625 87.0916 71.0438 86.6297 70.7708C87.0537 70.4822 87.3983 70.0918 87.6321 69.6353C87.7485 69.2704 87.8118 68.8906 87.82 68.5076V65.6649C87.7938 65.0669 87.5708 64.4943 87.1857 64.036C86.9053 63.6393 86.535 63.3146 86.105 63.0885C85.6091 62.8343 85.0566 62.7104 84.4996 62.7283H80.9913V79.6435H84.3117C84.8383 79.6886 85.368 79.6037 85.8541 79.3961C86.3403 79.1885 86.7679 78.8647 87.0996 78.4531C87.5666 77.8957 87.8218 77.1913 87.82 76.464V73.0418ZM85.04 76.5502C85.04 76.7413 84.9641 76.9245 84.829 77.0596C84.6939 77.1947 84.5106 77.2706 84.3195 77.2706H83.5991V71.7889H84.3195C84.5113 71.7909 84.6946 71.8686 84.8295 72.0049C84.9644 72.1413 85.04 72.3253 85.04 72.5172V76.5502ZM85.04 68.954C85.04 69.1458 84.9644 69.3299 84.8295 69.4662C84.6946 69.6026 84.5113 69.6802 84.3195 69.6823H83.5991V65.0228H84.3195C84.5113 65.0248 84.6946 65.1025 84.8295 65.2388C84.9644 65.3752 85.04 65.5593 85.04 65.7511V68.954ZM43.6212 66.8396V65.5944C43.6234 64.8797 43.3447 64.1927 42.8452 63.6815C42.3457 63.1703 41.6654 62.8758 40.9508 62.8614H39.6195C38.9166 62.8936 38.2532 63.1958 37.7674 63.7049C37.2817 64.214 37.011 64.8908 37.0117 65.5944V69.2594C37.0131 69.4844 37.0686 69.7057 37.1736 69.9047C37.2785 70.1037 37.4298 70.2746 37.6147 70.4028L40.7472 72.5876C40.8345 72.6504 40.9061 72.7326 40.9564 72.8277C41.0066 72.9228 41.0342 73.0283 41.0369 73.1358V76.6911C41.0183 76.8703 40.9339 77.0361 40.8001 77.1567C40.6664 77.2773 40.4927 77.344 40.3126 77.344C40.1325 77.344 39.9587 77.2773 39.825 77.1567C39.6912 77.0361 39.6068 76.8703 39.5882 76.6911V73.2846L37.0039 74.1225V76.9261C37.0037 77.6402 37.283 78.326 37.7821 78.8368C38.2812 79.3476 38.9604 79.6428 39.6743 79.6591H41.0134C41.7117 79.6157 42.3677 79.3099 42.8499 78.803C43.3321 78.2961 43.6048 77.6256 43.6134 76.9261V72.2666C43.6151 72.0334 43.557 71.8036 43.4446 71.5993C43.3321 71.395 43.1692 71.223 42.9712 71.0997L39.9327 69.0088C39.8349 68.9463 39.7537 68.8609 39.6964 68.7599C39.6391 68.6589 39.6073 68.5454 39.6038 68.4293V65.8294C39.6225 65.6502 39.7068 65.4844 39.8406 65.3638C39.9744 65.2432 40.1481 65.1765 40.3282 65.1765C40.5083 65.1765 40.682 65.2432 40.8158 65.3638C40.9496 65.4844 41.0339 65.6502 41.0526 65.8294V67.6775L43.6212 66.8396ZM74.8752 72.337C75.3805 72.132 75.8134 71.7812 76.1188 71.3294C76.4242 70.8775 76.5883 70.3451 76.5902 69.7998V65.7041C76.5468 65.1169 76.3255 64.557 75.9559 64.0987C75.674 63.7034 75.304 63.379 74.8752 63.1511C74.3895 62.9082 73.8519 62.7873 73.309 62.7987H69.7928V79.6513H72.4006V73.5587L72.6042 73.5039L74.5071 79.6513H77.0914L74.8752 72.337ZM72.3692 65.0541H73.0897C73.2808 65.0541 73.464 65.13 73.5991 65.2651C73.7343 65.4002 73.8102 65.5835 73.8102 65.7746V69.3221C73.8102 69.5131 73.7343 69.6964 73.5991 69.8315C73.464 69.9666 73.2808 70.0425 73.0897 70.0425H72.3692V65.0541Z" fill="white"/>
<path d="M28.6562 73.4101C29.5515 73.4101 30.2772 72.6843 30.2772 71.789C30.2772 70.8937 29.5515 70.168 28.6562 70.168C27.7609 70.168 27.0352 70.8937 27.0352 71.789C27.0352 72.6843 27.7609 73.4101 28.6562 73.4101Z" fill="white"/>
<path d="M129.246 73.4101C130.141 73.4101 130.867 72.6843 130.867 71.789C130.867 70.8937 130.141 70.168 129.246 70.168C128.351 70.168 127.625 70.8937 127.625 71.789C127.625 72.6843 128.351 73.4101 129.246 73.4101Z" fill="white"/>
<path d="M133.885 8.46535C136.212 8.46535 138.098 6.57906 138.098 4.25221C138.098 1.92535 136.212 0.0390625 133.885 0.0390625C131.558 0.0390625 129.672 1.92535 129.672 4.25221C129.672 6.57906 131.558 8.46535 133.885 8.46535Z" fill="white"/>
<path d="M160 4.25211C160.008 5.08702 159.768 5.9054 159.309 6.60338C158.851 7.30136 158.196 7.84746 157.427 8.17235C156.658 8.49725 155.809 8.58629 154.99 8.42817C154.17 8.27006 153.415 7.87191 152.822 7.28429C152.229 6.69666 151.824 5.94604 151.658 5.12772C151.492 4.3094 151.573 3.46028 151.891 2.68814C152.209 1.91601 152.749 1.25568 153.442 0.790978C154.136 0.326277 154.952 0.0781611 155.787 0.078125C156.898 0.078077 157.964 0.516582 158.753 1.29825C159.542 2.07992 159.99 3.14152 160 4.25211Z" fill="white"/>
<path d="M133.885 28.9517C136.212 28.9517 138.098 27.0654 138.098 24.7385C138.098 22.4117 136.212 20.5254 133.885 20.5254C131.558 20.5254 129.672 22.4117 129.672 24.7385C129.672 27.0654 131.558 28.9517 133.885 28.9517Z" fill="white"/>
</g>
<defs>
<clipPath id="clip0_1534_40631">
<rect width="160" height="80" fill="white"/>
</clipPath>
</defs>
</svg>
